<svg version="1.2" xmlns="http://www.w3.org/2000/svg" viewBox="0 0 45 45" width="45" height="45">
	<title>CIRCLE</title>
	<style>
		.s0 { fill: #fa9c21 } 
		.s1 { fill: #ffffff;stroke: #ffffff;paint-order:stroke fill markers;stroke-miterlimit:100;stroke-width: .5 } 
	</style>
	<path id="CIRCLE" class="s0" d="m22.8 44.4c-12.2 0-22-9.8-22-22 0-12.2 9.8-22 22-22 12.2 0 22 9.8 22 22 0 12.2-9.8 22-22 22z"/>
	<path id="ICON BITCOIN" fill-rule="evenodd" class="s1" d="m28.1 21.6c0.7-0.8 1.2-1.9 1.2-3.1 0-2.3-1.6-4.2-3.7-4.7v-1.4c0-0.7-0.6-1.2-1.3-1.2-0.7 0-1.2 0.5-1.2 1.2v1.2h-2.5v-1.2c0-0.7-0.5-1.2-1.2-1.2-0.7 0-1.3 0.5-1.3 1.2v1.2h-1.2c-0.7 0-1.2 0.6-1.2 1.2 0 0.7 0.7 1.3 1.4 1.3h1v6.1 6h-1.3c-0.7 0-1.1 0.6-1.1 1.3 0 0.6 0.5 1.2 1.2 1.2h1.2v1.2c0 0.7 0.6 1.2 1.3 1.2 0.7 0 1.2-0.5 1.2-1.2v-1.2h2.5v1.2c0 0.7 0.5 1.2 1.2 1.2 0.7 0 1.3-0.5 1.3-1.2v-1.2c2.7 0 4.9-2.2 4.9-4.9 0-1.8-1-3.3-2.4-4.2zm-7.5-5.5h3.8c1.4 0 2.5 1.1 2.5 2.5 0 1.4-1.1 2.5-2.5 2.5h-3.8zm5 12h-5v-4.9c0.6 0 4.4 0 5 0 1.3 0 2.4 1.1 2.4 2.5 0 1.3-1.1 2.4-2.4 2.4z"/>
</svg>