<svg version="1.2" xmlns="http://www.w3.org/2000/svg" viewBox="0 0 45 45" width="45" height="45">
	<title>CIRCLE</title>
	<style>
		.s0 { fill: #2376ff } 
		.s1 { fill: #ffffff } 
	</style>
	<path id="CIRCLE" class="s0" d="m22.8 44.2c-12.1 0-22-9.9-22-22 0-12.2 9.9-22 22-22 12.2 0 22 9.8 22 22 0 12.1-9.8 22-22 22z"/>
	<path id="ICON DOLLAR" class="s1" d="m23.9 13.8q2.3 0.3 3.5 2.2c0.5 0.7 0.1 1.8-0.7 2.1-0.7 0.3-1.4 0-1.8-0.6q-0.7-1.1-1.9-1.1-0.8 0-1.3 0.5-0.5 0.5-0.5 1.2 0 0.7 0.4 1.1 0.5 0.4 2.1 1 1.7 0.6 2.7 1.2 1 0.6 1.6 1.6 0.6 1 0.6 2.3 0 2-1.2 3.4-1.2 1.3-3.5 1.6c0 0-0.6 0.1-1.1 0.1-0.5 0-0.9-0.1-0.9-0.1q-2.9-0.3-4.1-2.8c-0.5-0.8 0-1.8 0.9-2l0.1-0.1c0.7-0.2 1.4 0.2 1.7 0.8q0.7 1.4 2.5 1.4 1.1 0 1.6-0.5 0.5-0.6 0.5-1.3 0-0.8-0.5-1.3-0.5-0.4-2.3-1-1.6-0.6-2.5-1.1-0.9-0.5-1.5-1.5-0.6-1-0.6-2.3 0-1.7 1.1-3.1 1-1.4 3.1-1.7m-0.4-0.5c0-0.9 0.6-1.5 1.5-1.5 0.8 0 1.5 0.6 1.5 1.5v0.5c0 0.9-0.7 1.5-1.5 1.5-0.9 0-1.5-0.6-1.5-1.5zm0 17.3c0-0.8 0.6-1.5 1.5-1.5 0.8 0 1.5 0.7 1.5 1.5v0.6c0 0.8-0.7 1.5-1.5 1.5-0.9 0-1.5-0.7-1.5-1.5z"/>
</svg>