<svg version="1.2" xmlns="http://www.w3.org/2000/svg" viewBox="0 0 72 86" width="72" height="86">
	<title>ICON NOTIFICATION</title>
	<style>
		.s0 { fill: #aeb8c4 } 
	</style>
	<g id="ICON NOTIFICATION">
		<path id="ICON NOTIFICATION" fill-rule="evenodd" class="s0" d="m70.6 65.5c-0.6 1.2-2.2 2.5-3.6 2.5h-62c-1.4 0-3-1.3-3.6-2.5-3.6-6.8 0.6-10.5 2.8-12.5 0.9-0.8 1.8-1.6 2.2-2.4q0.1-0.1 0.1-0.2c1.6-2.6 2.2-8.9 2.5-12.7q0.1-0.9 0.2-1.6 0-0.1 0-0.2c0.8-5.6 2.7-13.6 7.5-20.3 3.4-4.7 7.5-7.8 12.5-9.3 0.3-3.5 3.2-6.3 6.8-6.3 3.6 0 6.5 2.8 6.8 6.3 4.9 1.5 9.1 4.6 12.5 9.3 4.8 6.7 6.7 14.7 7.5 20.3q0 0.1 0 0.2 0.1 0.7 0.2 1.6c0.3 3.8 0.9 10.1 2.5 12.7q0 0.1 0.1 0.2c0.4 0.8 1.3 1.6 2.2 2.4 2.2 2 6.4 5.7 2.8 12.5zm-42 9.5h14.5c0.8 0 1.3 0.4 1.5 0.7 0.6 0.7 0.4 1.6 0.3 2q0 0.1 0 0.1c-0.6 4.7-4.4 8.2-8.9 8.2-4.4 0-8.1-3.3-8.9-7.9-0.1-0.7-0.3-1.7 0.3-2.5 0.3-0.4 0.8-0.6 1.2-0.6z"/>
	</g>
</svg>