<svg version="1.2" xmlns="http://www.w3.org/2000/svg" viewBox="0 0 17 80" width="17" height="80">
	<title>ICON MORE</title>
	<style>
		.s0 { fill: #aeb8c4 } 
	</style>
	<g id="ICON MORE">
		<path id="ICON MORE" fill-rule="evenodd" class="s0" d="m17 8.2c0 4.5-3.8 8.2-8.5 8.2-4.7 0-8.5-3.7-8.5-8.2 0-4.5 3.8-8.2 8.5-8.2 4.7 0 8.5 3.7 8.5 8.2zm0 31.5c0 4.5-3.8 8.2-8.5 8.2-4.7 0-8.5-3.7-8.5-8.2 0-4.5 3.8-8.2 8.5-8.2 4.7 0 8.5 3.7 8.5 8.2zm0 32.1c0 4.5-3.8 8.2-8.5 8.2-4.7 0-8.5-3.7-8.5-8.2 0-4.5 3.8-8.2 8.5-8.2 4.7 0 8.5 3.7 8.5 8.2z"/>
	</g>
</svg>