<svg version="1.2" xmlns="http://www.w3.org/2000/svg" viewBox="0 0 88 87" width="88" height="87">
	<title>ICON WALLET</title>
	<style>
		.s0 { fill: #4c5968 } 
	</style>
	<g id="ICON WALLET">
		<path id="ICON WALLET" fill-rule="evenodd" class="s0" d="m10 0h49.5c3 0 5.5 2.5 5.5 5.5v1c0 3-2.5 5.5-5.5 5.5h-41.5c-3.3 0-6 2.7-6 6 0 3.3 2.7 6 6 6h60c5.5 0 10 4.5 10 10v43c0 5.5-4.5 10-10 10h-68c-5.5 0-10-4.5-10-10v-67c0-5.5 4.5-10 10-10zm50 55c0 4.4 3.6 8 8 8 4.4 0 8-3.6 8-8 0-4.4-3.6-8-8-8-4.4 0-8 3.6-8 8z"/>
	</g>
</svg>