<svg version="1.2" xmlns="http://www.w3.org/2000/svg" viewBox="0 0 88 88" width="88" height="88">
	<title>ICON EXPLORE COINS</title>
	<style>
		.s0 { fill: #aeb8c4 } 
	</style>
	<g id="ICON EXPLORE COINS">
		<path id="ICON EXPLORE COINS" fill-rule="evenodd" class="s0" d="m44 88c-24.4 0-44-19.6-44-44 0-24.4 19.6-44 44-44 24.4 0 44 19.6 44 44 0 24.4-19.6 44-44 44zm21.4-67.2c-0.2 0-0.3 0.2-0.5 0.2l-32.1 10.7q-0.8 0.2-1.1 1l-10.7 32.2c-0.2 0.1-0.2 0.3-0.2 0.5 0 1.1 0.7 1.8 1.8 1.8 0.2 0 0.3-0.2 0.5-0.2l32.1-10.7q0.8-0.3 1.1-1.1l10.7-32.1c0.2-0.2 0.2-0.4 0.2-0.5 0-1.1-0.7-1.8-1.8-1.8zm-20.6 28.8c-3.5 0-6.4-2.9-6.4-6.4 0-3.5 2.9-6.4 6.4-6.4 3.5 0 6.4 2.9 6.4 6.4 0 3.5-2.9 6.4-6.4 6.4z"/>
	</g>
</svg>