<svg version="1.2" xmlns="http://www.w3.org/2000/svg" viewBox="0 0 88 88" width="88" height="88">
	<title>ICON SETTINGS</title>
	<style>
		.s0 { fill: #aeb8c4 } 
	</style>
	<g id="ICON SETTINGS">
		<path id="ICON SETTINGS" fill-rule="evenodd" class="s0" d="m88 44c0-3.3-2.3-6.8-5.3-7.8-2.9-1-5.7-3.5-6.5-5.5-0.8-2-0.6-5.8 0.7-8.6 1.3-2.8 0.5-6.9-1.8-9.2-2.3-2.3-6.4-3.1-9.2-1.8-2.8 1.3-6.6 1.5-8.6 0.7-1.9-0.8-4.5-3.6-5.5-6.6-1-2.9-4.5-5.2-7.8-5.2-3.3 0-6.8 2.3-7.8 5.2-1 3-3.6 5.8-5.5 6.6-2 0.8-5.8 0.6-8.6-0.7-2.8-1.3-6.9-0.5-9.2 1.8-2.3 2.3-3.1 6.4-1.8 9.2 1.3 2.8 1.5 6.6 0.7 8.6-0.8 1.9-3.6 4.5-6.6 5.5-2.9 1-5.2 4.5-5.2 7.8 0 3.3 2.3 6.8 5.2 7.8 3 1 5.8 3.6 6.6 5.5 0.8 2 0.6 5.8-0.7 8.6-1.3 2.8-0.5 6.9 1.8 9.2 2.3 2.3 6.4 3.1 9.2 1.8 2.8-1.3 6.6-1.5 8.6-0.7 1.9 0.8 4.5 3.7 5.5 6.6 1 2.9 4.5 5.2 7.8 5.2 3.3 0 6.8-2.3 7.8-5.2 1-2.9 3.6-5.8 5.5-6.6 2-0.8 5.8-0.6 8.6 0.7 2.8 1.3 6.9 0.5 9.2-1.8 2.3-2.3 3.1-6.4 1.8-9.2-1.3-2.8-1.5-6.6-0.7-8.6 0.8-1.9 3.6-4.5 6.5-5.5 3-1 5.3-4.5 5.3-7.8zm-44 16.1c-8.9 0-16.2-7.2-16.2-16.1 0-8.9 7.3-16.1 16.2-16.1 8.9 0 16.1 7.2 16.1 16.1 0 8.9-7.2 16.1-16.1 16.1z"/>
	</g>
</svg>