<svg version="1.2" xmlns="http://www.w3.org/2000/svg" viewBox="0 0 44 45" width="44" height="45">
	<title>CIRCLE</title>
	<style>
		.s0 { fill: #18af64 } 
		.s1 { fill: #ffffff } 
	</style>
	<path id="CIRCLE" class="s0" d="m22.1 44.1c-12.2 0-22-9.8-22-21.9 0-12.1 9.8-21.9 22-21.9 12.1 0 21.9 9.8 21.9 21.9 0 12.1-9.8 21.9-21.9 21.9z"/>
	<path id="ICON DOLLAR" class="s1" d="m23.1 13.9q2.4 0.3 3.5 2.1c0.5 0.8 0.2 1.8-0.7 2.1-0.6 0.3-1.4 0.1-1.8-0.5q-0.7-1.2-1.9-1.2-0.8 0-1.3 0.5-0.5 0.5-0.5 1.2 0 0.8 0.5 1.2 0.5 0.4 2 0.9 1.8 0.7 2.8 1.2 0.9 0.6 1.5 1.6 0.6 1 0.6 2.3 0 2-1.2 3.4-1.2 1.4-3.5 1.6c0 0-0.6 0.1-1 0.1-0.5 0-0.9-0.1-0.9-0.1q-3-0.3-4.2-2.8c-0.4-0.8 0.1-1.8 1-2l0.1-0.1c0.7-0.1 1.4 0.2 1.7 0.8q0.7 1.4 2.4 1.4 1.1 0 1.6-0.5 0.5-0.6 0.5-1.3 0-0.8-0.5-1.2-0.5-0.4-2.3-1.1-1.6-0.5-2.5-1.1-0.9-0.5-1.4-1.5-0.6-1-0.6-2.3 0-1.7 1-3 1-1.4 3.2-1.7m-0.5-0.6c0-0.8 0.7-1.5 1.5-1.5 0.8 0 1.5 0.7 1.5 1.5v0.6c0 0.8-0.7 1.5-1.5 1.5-0.8 0-1.5-0.7-1.5-1.5zm0 17.2c0-0.8 0.7-1.5 1.5-1.5 0.8 0 1.5 0.7 1.5 1.5v0.6c0 0.8-0.7 1.5-1.5 1.5-0.8 0-1.5-0.7-1.5-1.5z"/>
</svg>